<?xml version="1.0" encoding="UTF-8" standalone="no"?>
<!DOCTYPE svg PUBLIC "-//W3C//DTD SVG 20010904//EN" "http://www.w3.org/TR/2001/REC-SVG-20010904/DTD/svg10.dtd">
<svg version="1.0" xmlns="http://www.w3.org/2000/svg" width="1041.000000pt" height="1047.000000pt" viewBox="0 0 1041.000000 1047.000000" preserveAspectRatio="xMidYMid meet">

<g transform="translate(0.000000,1047.000000) scale(0.100000,-0.100000)" fill="#000000" stroke="none">
<path d="M4970 10459 c-349 -21 -717 -100 -1070 -230 -262 -97 -631 -293 -895 -476 -338 -234 -729 -615 -1015 -991 l-25 -33 -130 11 c-190 15 -384 -3 -565 -52 -352 -96 -679 -322 -902 -622 -367 -493 -455 -1112 -256 -1786 113 -382 325 -781 556 -1048 51 -59 54 -65 49 -105 -3 -23 -15 -109 -26 -192 -26 -200 -44 -566 -36 -745 40 -893 389 -1683 971 -2200 158 -140 326 -261 490 -351 l71 -39 6 -159 c9 -216 25 -293 88 -419 43 -87 49 -106 41 -130 -5 -15 -82 -186 -171 -379 -88 -194 -161 -355 -161 -358 0 -2 380 -5 845 -4 l845 0 0 103 c0 57 3 136 6 177 l7 75 86 34 c131 51 400 189 553 284 l138 85 81 -30 c239 -87 429 -123 649 -123 192 1 281 14 502 78 l150 43 126 -53 127 -53 36 -243 c20 -134 43 -272 51 -308 l14 -65 838 -2 c656 -2 837 0 833 10 -8 23 -285 882 -321 996 -20 63 -36 122 -36 132 0 34 35 57 125 84 938 276 1615 924 1936 1853 115 334 166 626 176 1009 8 300 -7 503 -64 895 -5 34 -1 43 49 100 275 317 513 805 607 1248 70 327 70 659 0 935 -83 325 -236 593 -479 835 -256 257 -561 414 -920 475 -103 18 -329 24 -450 11 l-75 -7 -50 68 c-157 214 -419 497 -625 677 -696 606 -1484 936 -2355 986 -188 11 -229 11 -425 -1z m435 -504 c208 -9 533 -69 713 -130 7 -3 14 -5 17 -5 3 0 25 -9 51 -20 25 -11 55 -22 67 -24 65 -13 449 -196 483 -230 8 -9 21 -16 28 -16 7 0 23 -9 36 -20 13 -11 29 -20 37 -20 7 0 13 -4 13 -9 0 -5 9 -13 21 -16 12 -4 29 -13 38 -21 9 -7 66 -47 126 -89 61 -42 117 -85 127 -96 9 -10 20 -19 25 -19 5 0 16 -8 25 -17 9 -10 33 -31 54 -48 64 -52 354 -347 349 -355 -2 -4 5 -16 16 -26 33 -30 209 -250 209 -261 0 -6 7 -14 16 -17 8 -3 12 -10 9 -16 -3 -6 1 -13 9 -16 9 -3 16 -12 16 -19 0 -6 11 -24 25 -39 13 -14 22 -26 19 -26 -3 0 9 -20 26 -44 16 -25 30 -52 30 -60 0 -9 5 -16 11 -16 5 0 7 -5 4 -10 -3 -6 1 -13 9 -16 9 -3 13 -10 10 -15 -3 -5 0 -9 6 -9 6 0 9 -4 5 -9 -3 -6 3 -14 12 -20 10 -5 17 -13 15 -18 -1 -4 22 -57 52 -118 110 -222 191 -418 180 -436 -4 -8 -3 -9 4 -5 11 7 16 -7 15 -41 -1 -7 4 -13 9 -13 6 0 8 -7 4 -15 -3 -8 -1 -15 4 -15 5 0 7 -7 4 -15 -4 -8 -1 -15 5 -15 6 0 8 -7 5 -15 -4 -8 -2 -15 4 -15 6 0 8 -10 4 -22 -3 -13 -1 -19 5 -15 7 5 9 -1 5 -15 -3 -11 -1 -19 4 -16 5 4 9 -6 10 -20 0 -15 13 -72 28 -127 29 -106 77 -368 75 -413 -1 -40 -5 -20 -24 111 -10 65 -19 116 -22 114 -2 -3 6 -69 17 -148 12 -79 25 -189 29 -244 l8 -100 3 70 3 70 7 -95 c12 -147 11 -262 0 -255 -15 9 -12 -2 5 -19 9 -8 17 -33 20 -55 2 -23 6 -45 9 -50 3 -5 7 -27 8 -50 1 -24 5 -38 11 -34 6 3 7 1 3 -5 -4 -7 0 -22 8 -34 9 -12 16 -36 16 -53 0 -17 4 -35 8 -40 11 -13 46 -145 44 -167 0 -10 4 -18 9 -18 6 0 8 -3 6 -7 -3 -5 4 -46 14 -93 26 -115 36 -412 20 -546 -15 -118 -45 -278 -61 -319 -6 -17 -11 -32 -11 -35 3 -17 -72 -218 -107 -290 -9 -19 -41 -75 -69 -124 -29 -48 -53 -90 -53 -92 0 -5 -67 -92 -85 -110 -8 -9 -15 -20 -15 -26 0 -10 -37 -51 -177 -197 -46 -46 -83 -81 -83 -77 0 4 -10 -2 -22 -14 -12 -11 -32 -20 -44 -20 -12 0 -24 -4 -26 -10 -4 -14 -114 -19 -173 -9 -93 17 -118 46 -181 204 -50 124 -142 192 -286 210 l-57 7 55 72 c262 344 274 918 26 1283 -115 170 -303 265 -463 235 -301 -56 -518 -414 -519 -857 0 -494 271 -880 606 -863 l73 3 -17 -25 c-9 -14 -62 -93 -116 -175 -158 -238 -243 -308 -334 -275 -70 25 -174 100 -364 263 -71 60 -128 113 -128 118 0 14 -112 118 -134 125 -12 4 -23 9 -26 13 -12 14 -152 102 -211 132 -160 80 -402 143 -597 155 -166 10 -266 -17 -330 -91 -35 -39 -58 -86 -68 -139 -7 -43 -22 -46 -203 -46 -209 0 -289 -28 -393 -138 -35 -37 -93 -88 -128 -114 -36 -25 -139 -111 -230 -189 -258 -223 -411 -339 -446 -339 -6 0 -27 24 -45 53 -66 104 -101 137 -248 234 -80 53 -157 111 -171 127 -67 81 -119 131 -155 147 -50 23 -142 24 -234 4 -75 -18 -93 -14 -162 32 -23 15 -49 33 -59 38 -22 13 -147 168 -174 215 -12 20 -42 67 -67 106 -26 38 -50 80 -54 94 -4 14 -20 50 -35 80 -27 52 -37 74 -73 165 -24 59 -76 257 -83 317 -4 29 -8 56 -10 59 -8 13 -19 223 -17 324 2 140 13 236 33 314 5 19 7 38 4 43 -3 4 -2 14 3 21 4 6 9 23 11 37 1 14 14 61 28 105 14 44 26 94 27 111 1 18 5 30 9 27 5 -2 8 -1 9 4 0 4 3 17 5 28 3 11 5 27 5 35 1 8 7 31 14 50 8 22 11 66 9 120 -3 62 -1 81 7 70 8 -11 9 19 4 103 -4 90 -3 117 6 111 9 -5 11 13 7 72 -3 43 -2 71 1 61 4 -10 12 36 19 103 7 66 10 125 6 132 -5 7 -3 8 6 3 9 -6 12 1 8 28 -2 20 0 33 5 30 6 -3 8 8 5 25 -3 19 0 29 5 25 6 -4 8 6 4 26 -5 23 -3 30 5 25 8 -5 9 3 5 27 -5 26 -4 30 4 19 8 -11 9 -7 5 18 -4 22 -2 31 5 26 8 -4 9 1 4 16 -5 16 -4 20 4 15 8 -5 10 1 5 21 -5 20 -4 25 6 19 9 -5 10 -2 5 14 -4 13 -2 21 5 21 6 0 8 4 5 10 -8 13 66 247 115 365 4 11 18 45 30 75 12 30 38 89 58 130 19 41 35 81 35 88 0 6 5 12 10 12 6 0 8 3 4 6 -3 3 3 15 13 27 11 11 17 24 14 29 -3 4 0 8 6 8 6 0 8 5 5 10 -3 6 -1 10 6 10 7 0 10 3 6 6 -6 6 25 67 79 152 19 28 30 52 26 52 -4 0 1 5 11 11 9 6 15 14 12 20 -4 5 1 12 9 15 9 3 14 10 11 14 -3 5 2 13 11 18 9 5 15 12 14 16 -2 8 157 226 173 237 5 3 8 9 8 12 -1 7 10 19 89 107 28 30 50 60 50 65 0 6 41 51 91 100 184 182 234 226 359 321 41 31 77 59 80 63 3 3 18 13 34 21 16 8 42 27 59 43 16 15 35 27 43 27 8 0 14 5 14 10 0 6 7 10 15 10 8 0 15 4 15 10 0 5 11 12 24 16 14 3 27 12 30 20 3 8 15 14 26 14 12 0 19 4 16 9 -6 9 36 31 60 31 8 0 13 4 10 8 -6 10 307 164 439 216 192 75 477 146 710 177 106 14 349 27 420 23 28 -2 104 -6 170 -9z m-3625 -1483 c0 -5 -32 -65 -70 -133 -290 -510 -460 -1032 -499 -1524 -16 -209 -33 -594 -26 -605 3 -5 -14 -36 -38 -67 -111 -146 -246 -393 -313 -575 -16 -43 -32 -78 -36 -78 -5 0 -8 4 -8 8 0 5 -18 33 -41 63 -36 48 -77 113 -147 234 -40 70 -115 228 -140 295 -51 137 -113 326 -118 360 -3 19 -8 38 -10 41 -6 11 -42 200 -49 264 -10 81 -11 316 -2 390 12 95 14 106 31 185 23 100 21 96 50 170 53 140 74 189 100 226 14 21 26 44 26 50 0 7 3 14 8 16 4 2 25 30 47 63 22 33 44 65 50 71 5 6 22 26 37 45 36 47 120 130 187 187 52 44 198 146 210 147 3 1 30 13 59 28 48 25 194 83 232 92 47 12 220 44 250 47 83 8 210 8 210 0z m7110 -7 c63 -8 149 -30 280 -70 48 -15 248 -115 261 -131 6 -8 15 -14 20 -14 5 0 17 -7 26 -15 10 -8 45 -35 78 -60 163 -123 313 -304 407 -490 38 -75 107 -241 113 -275 2 -8 9 -35 16 -60 7 -25 12 -48 11 -52 -1 -4 2 -18 7 -31 23 -59 36 -378 20 -478 -5 -30 -11 -74 -13 -99 -6 -51 -37 -196 -61 -285 -9 -33 -17 -64 -19 -70 -6 -29 -38 -122 -47 -137 -5 -10 -9 -25 -9 -33 0 -17 -43 -114 -101 -227 -22 -43 -36 -78 -32 -78 4 0 4 -4 -2 -8 -11 -8 -27 -35 -63 -107 -14 -27 -33 -58 -44 -69 -10 -11 -18 -26 -18 -33 0 -7 -4 -13 -10 -13 -5 0 -10 -5 -10 -11 0 -6 -6 -17 -12 -24 -7 -8 -26 -32 -42 -54 -17 -23 -33 -41 -36 -41 -4 0 -24 44 -45 98 -73 186 -211 431 -334 592 -17 22 -21 54 -30 240 -31 597 -60 775 -191 1170 -84 255 -208 528 -349 774 -28 49 -51 93 -51 99 0 9 187 4 280 -8z m-403 -1697 c-2 -13 -4 -5 -4 17 -1 22 1 32 4 23 2 -10 2 -28 0 -40z m-1510 -1167 c61 -28 98 -89 97 -160 0 -63 -18 -103 -65 -149 -44 -43 -87 -56 -137 -43 -84 23 -138 98 -130 183 7 68 52 137 108 166 54 27 73 27 127 3z m-1662 -1225 c17 -4 39 -10 50 -13 11 -4 23 -8 28 -9 4 -1 9 -3 12 -4 3 -1 8 -3 13 -5 4 -1 16 -5 27 -9 90 -34 170 -70 173 -78 2 -5 10 -8 19 -8 15 0 74 -29 83 -42 3 -3 14 -8 25 -10 11 -1 27 -10 35 -18 8 -9 29 -24 45 -35 27 -17 139 -101 205 -155 14 -11 35 -28 47 -38 11 -9 31 -24 43 -32 23 -15 39 -28 103 -83 121 -104 262 -184 338 -191 58 -5 149 16 173 40 8 8 18 14 22 14 8 0 139 134 171 176 13 16 33 44 46 61 13 18 26 30 29 28 3 -3 13 6 22 20 9 14 23 25 31 25 8 0 18 6 22 14 9 15 73 50 73 40 0 -4 6 -2 13 3 18 15 127 13 164 -2 41 -17 87 -55 118 -97 10 -13 47 -87 51 -100 1 -5 2 -9 4 -10 4 -6 19 -76 27 -128 10 -61 9 -571 -1 -965 -5 -176 -10 -493 -12 -705 -2 -212 -6 -398 -8 -415 -9 -60 -19 -112 -30 -150 -2 -5 -6 -23 -11 -40 -4 -16 -12 -36 -18 -42 -5 -7 -7 -13 -3 -13 7 0 -42 -101 -53 -110 -3 -3 -12 -17 -20 -32 -26 -50 -116 -149 -180 -198 -18 -14 -45 -35 -59 -47 -15 -13 -33 -23 -39 -23 -7 0 -13 -4 -13 -8 0 -4 -12 -13 -27 -19 -16 -7 -35 -16 -43 -21 -45 -27 -166 -74 -225 -88 -5 -2 -21 -6 -35 -9 -129 -33 -312 -37 -440 -10 -14 3 -41 8 -60 11 -19 3 -43 10 -52 15 -10 5 -18 8 -18 5 0 -3 -16 2 -35 10 -19 8 -35 12 -35 9 0 -4 -6 -3 -12 2 -7 4 -16 8 -20 9 -5 1 -10 3 -13 4 -3 1 -8 3 -12 5 -5 1 -21 7 -36 13 -16 7 -33 12 -38 12 -5 0 -17 4 -27 9 -9 5 -33 16 -52 24 -91 40 -256 122 -268 134 -7 7 -20 13 -27 13 -7 0 -20 6 -27 13 -20 18 -50 37 -70 43 -10 4 -18 10 -18 15 0 5 -7 9 -15 9 -8 0 -15 5 -15 10 0 6 -7 10 -15 10 -8 0 -15 5 -15 10 0 6 -7 10 -15 10 -8 0 -15 4 -15 9 0 5 -8 12 -17 15 -10 3 -31 17 -48 31 -16 14 -40 33 -52 43 -54 42 -70 54 -107 85 -55 44 -343 333 -386 385 -19 24 -44 54 -55 66 -11 13 -29 36 -39 50 -18 25 -38 50 -66 83 -5 7 -10 17 -10 23 0 5 -4 10 -10 10 -5 0 -12 11 -16 25 -3 14 -10 22 -15 19 -5 -3 -9 2 -9 10 0 9 -4 16 -10 16 -5 0 -10 7 -10 15 0 8 -4 15 -10 15 -5 0 -10 7 -10 15 0 8 -4 15 -10 15 -5 0 -10 7 -10 15 0 8 -4 15 -9 15 -5 0 -12 8 -15 18 -13 32 -31 62 -38 62 -5 0 -8 6 -8 14 0 8 -6 21 -13 28 -26 27 -69 88 -62 88 5 0 1 8 -7 18 -9 9 -23 32 -32 50 -9 18 -21 30 -26 27 -6 -4 -7 1 -3 11 4 11 3 15 -5 10 -6 -3 -13 3 -17 14 -4 11 -18 33 -31 47 -28 30 -102 174 -109 213 -3 14 -7 45 -10 69 -2 24 -8 62 -12 85 -7 44 -9 340 -2 392 4 31 11 35 63 35 44 -1 178 -72 306 -164 126 -90 575 -435 991 -760 80 -63 155 -119 166 -126 28 -15 60 -14 66 2 12 37 20 30 -878 707 -303 228 -396 304 -505 411 -76 75 -170 189 -170 207 0 6 -5 12 -11 14 -12 4 -14 13 -23 133 -11 128 46 234 159 300 25 15 45 24 45 20 0 -3 6 -3 13 2 29 18 165 25 186 9 12 -9 13 -8 6 3 -6 10 -4 12 5 6 12 -8 78 -24 108 -27 6 -1 10 -3 7 -6 -6 -6 67 -53 155 -100 154 -82 301 -189 940 -682 461 -356 459 -355 487 -327 24 24 5 46 -133 153 -70 54 -173 135 -229 179 -467 364 -787 623 -867 702 -120 119 -171 219 -125 244 9 5 22 15 29 22 24 22 80 59 91 61 7 1 17 5 23 8 6 4 23 9 38 12 16 3 31 7 33 10 7 6 191 0 228 -8z m-1260 -748 l17 -108 -29 -27 c-48 -45 -58 -90 -56 -250 l2 -143 -166 -127 c-188 -145 -263 -209 -263 -228 0 -27 27 -37 57 -21 25 12 228 165 345 259 21 17 40 28 43 25 3 -3 14 -41 25 -85 29 -122 108 -292 254 -548 25 -44 46 -84 46 -90 -1 -5 -38 -37 -83 -70 -112 -82 -157 -124 -157 -146 0 -26 25 -34 56 -20 14 6 68 45 119 86 52 41 98 76 104 77 5 2 58 -71 118 -162 171 -259 296 -424 412 -542 45 -47 60 -68 48 -68 -10 0 -15 -4 -12 -10 6 -9 -8 -14 -27 -11 -5 0 -8 -5 -8 -13 0 -8 -10 -22 -22 -30 -12 -9 -56 -49 -97 -89 -42 -41 -85 -77 -95 -81 -10 -3 -16 -9 -13 -12 8 -8 -47 -54 -64 -54 -7 0 -10 -3 -6 -6 6 -7 -77 -74 -92 -74 -5 0 -16 -11 -25 -25 -9 -14 -21 -23 -26 -20 -6 4 -10 1 -10 -4 0 -6 -6 -11 -14 -11 -8 0 -16 -7 -20 -15 -3 -8 -12 -15 -21 -15 -8 0 -15 -4 -15 -8 0 -5 -20 -19 -44 -32 -25 -12 -47 -29 -50 -36 -3 -8 -14 -14 -25 -14 -11 0 -21 -5 -23 -11 -2 -5 -12 -11 -22 -13 -10 -1 -24 -10 -31 -20 -7 -9 -22 -18 -33 -19 -11 0 -18 -5 -16 -9 3 -4 2 -8 -3 -9 -29 -3 -48 -9 -51 -18 -2 -6 -10 -11 -18 -11 -8 0 -14 -4 -14 -9 0 -5 -15 -13 -32 -16 -18 -4 -49 -17 -68 -29 -19 -11 -39 -20 -43 -18 -4 1 -17 -4 -29 -12 -11 -8 -27 -12 -34 -9 -8 3 -14 0 -14 -6 0 -6 -6 -11 -13 -11 -8 0 -28 -7 -46 -16 -17 -9 -39 -13 -47 -10 -10 4 -13 2 -8 -6 5 -7 0 -9 -14 -6 -12 4 -20 2 -16 -3 3 -5 -2 -10 -10 -10 -9 -1 -19 -2 -23 -3 -5 -1 -24 -6 -43 -10 -19 -5 -39 -11 -45 -15 -5 -3 -18 -6 -27 -7 -10 -1 -19 -2 -20 -4 -17 -13 -332 -20 -398 -8 -19 4 -51 10 -70 13 -19 4 -43 11 -54 17 -13 7 -16 7 -12 -1 5 -7 1 -9 -8 -5 -9 3 -16 10 -16 15 0 4 -7 6 -15 3 -8 -4 -15 -1 -15 5 0 6 -7 8 -15 5 -8 -4 -15 -1 -15 5 0 6 -9 11 -20 11 -11 0 -20 5 -20 11 0 6 -7 9 -15 5 -8 -3 -15 -1 -15 5 0 10 -60 39 -88 43 -8 2 -17 8 -22 15 -4 8 -12 11 -18 7 -5 -3 -13 1 -16 10 -3 8 -11 12 -16 9 -6 -4 -9 -1 -8 6 2 7 -1 13 -7 14 -28 2 -204 182 -239 244 -5 9 -12 18 -15 21 -7 6 -53 100 -58 118 -2 6 -4 18 -6 25 -1 6 -6 18 -10 25 -9 14 -19 57 -21 85 0 9 -3 17 -6 17 -6 0 -13 59 -14 123 0 20 -3 37 -6 37 -4 0 -7 192 -8 428 0 235 -3 533 -6 662 -11 418 -15 863 -9 873 3 5 7 30 9 56 4 60 11 90 25 107 6 8 8 14 4 14 -4 0 -3 6 2 13 6 6 13 24 17 40 3 15 11 27 16 27 6 0 10 5 10 10 0 6 9 20 20 32 10 12 17 25 14 29 -2 4 1 11 7 15 8 5 9 3 4 -6 -5 -8 -3 -11 6 -8 8 3 13 11 12 17 -2 6 6 11 16 11 10 0 22 7 25 16 4 9 13 14 21 10 8 -3 15 -2 15 2 0 19 144 18 173 -1 12 -7 35 -17 50 -21 15 -3 25 -11 22 -16 -3 -6 0 -10 8 -10 16 0 90 -76 100 -103 4 -10 11 -16 16 -13 5 4 15 -7 23 -24 7 -16 16 -30 20 -30 3 0 16 -16 28 -35 12 -19 27 -32 32 -29 7 4 8 2 4 -4 -3 -6 5 -19 20 -29 14 -10 33 -26 42 -35 9 -10 24 -18 33 -18 9 0 19 -7 23 -15 3 -8 12 -15 21 -15 9 0 28 -8 42 -17 15 -10 24 -12 20 -6 -6 10 -2 11 15 5 35 -11 135 0 148 16 3 4 31 20 63 37 31 16 57 33 57 37 0 4 5 8 10 8 6 0 23 11 38 25 15 14 32 25 39 25 7 0 13 7 13 15 0 8 6 15 14 15 8 0 22 10 30 22 9 12 16 19 16 15 0 -8 5 -4 53 38 15 14 32 25 38 25 5 0 9 7 9 16 0 8 5 12 10 9 10 -6 20 2 80 57 10 9 21 14 23 11 3 -2 8 5 12 16 3 12 11 19 16 16 5 -4 9 -2 9 3 0 5 10 14 23 20 15 7 17 11 7 12 -8 1 -4 5 10 9 14 4 24 13 23 19 -2 6 4 9 11 6 8 -3 17 3 21 15 3 11 12 18 19 15 7 -3 16 2 19 10 4 9 13 16 22 16 8 0 16 6 16 13 1 6 5 -33 9 -88 4 -55 15 -148 25 -207z"/>
<path d="M8401 7194 c0 -11 3 -14 6 -6 3 7 2 16 -1 19 -3 4 -6 -2 -5 -13z"/>
<path d="M8411 7154 c0 -11 3 -14 6 -6 3 7 2 16 -1 19 -3 4 -6 -2 -5 -13z"/>
<path d="M8422 7110 c0 -14 2 -19 5 -12 2 6 2 18 0 25 -3 6 -5 1 -5 -13z"/>
<path d="M8493 6445 c0 -33 2 -45 4 -27 2 18 2 45 0 60 -2 15 -4 0 -4 -33z"/>
<path d="M3385 5886 c-239 -59 -427 -330 -475 -683 -17 -125 -8 -342 19 -450 74 -297 238 -508 440 -567 154 -45 299 1 436 139 70 69 89 96 138 195 105 213 140 453 103 700 -68 449 -358 741 -661 666z m146 -282 c47 -19 95 -79 105 -131 15 -78 -56 -198 -131 -223 -66 -22 -155 22 -189 94 -22 48 -20 102 8 161 26 57 47 78 96 99 45 20 61 20 111 0z"/>
</g>
</svg>